<svg xmlns="http://www.w3.org/2000/svg" viewBox="0 0 432 432">
  <path d="M234.224 36.67v36.215c31.646 3.92 60.914 18.16 83.823 41.068 27.198 27.198 42.177 63.36 42.177 101.823s-14.98 74.626-42.177 101.823c-22.91 22.906-52.177 37.143-83.823 41.065v36.215c90.96-9.03 162-85.77 162-179.105s-71.04-170.074-162-179.106zm-36 321.998c-31.646-3.922-60.915-18.16-83.823-41.068-27.195-27.197-42.174-63.36-42.174-101.823s14.98-74.625 42.177-101.823c22.91-22.91 52.178-37.146 83.824-41.068V36.67c-90.96 9.032-162 85.77-162 179.106 0 93.337 71.04 170.075 162 179.106v-36.214z"/>
  <path d="M259.748 233.842l136.474 136.475-25.454 25.455-136.475-136.475zM54.224 197.776h144v36h-144z"/>
</svg>
