<?xml version="1.0" encoding="utf-8"?>
<!DOCTYPE svg PUBLIC "-//W3C//DTD SVG 1.1//EN" "http://www.w3.org/Graphics/SVG/1.1/DTD/svg11.dtd">
<svg version="1.1" id="eqcss" xmlns="http://www.w3.org/2000/svg" xmlns:xlink="http://www.w3.org/1999/xlink" x="0px" y="0px" width="432px" height="432px" viewBox="0 0 432 432" enable-background="new 0 0 432 432" xml:space="preserve">
<g>
  <path d="M234.224,36.67v36.215c31.646,3.921,60.914,18.159,83.823,41.068c27.198,27.198,42.177,63.359,42.177,101.823 s-14.979,74.626-42.177,101.823c-22.909,22.909-52.177,37.146-83.823,41.068v36.215c90.959-9.031,162-85.77,162-179.106 C396.224,122.44,325.183,45.702,234.224,36.67z"/>
  <path d="M198.224,358.668c-31.646-3.922-60.915-18.159-83.823-41.068c-27.198-27.197-42.177-63.359-42.177-101.823 s14.979-74.625,42.177-101.823c22.909-22.909,52.177-37.146,83.823-41.068V36.67c-90.959,9.032-162,85.771-162,179.106 c0,93.337,71.041,170.075,162,179.106V358.668z"/>
  <rect x="218.755" y="296.812" transform="matrix(0.7071 0.7071 -0.7071 0.7071 314.942 -130.7153)" width="193.006" height="35.999"/>
  <rect x="54.224" y="197.776" width="144" height="36"/>
</g>
</svg>